<svg width="800" height="600" xmlns="http://www.w3.org/2000/svg">
  <!-- Background gradient -->
  <defs>
    <linearGradient id="bg" x1="0%" y1="0%" x2="100%" y2="100%">
      <stop offset="0%" style="stop-color:#374151;stop-opacity:1" />
      <stop offset="100%" style="stop-color:#1f2937;stop-opacity:1" />
    </linearGradient>
    <filter id="glow">
      <feGaussianBlur stdDeviation="2" result="coloredBlur"/>
      <feMerge> 
        <feMergeNode in="coloredBlur"/>
        <feMergeNode in="SourceGraphic"/>
      </feMerge>
    </filter>
  </defs>
  
  <rect width="800" height="600" fill="url(#bg)"/>
  
  <!-- Grid pattern -->
  <defs>
    <pattern id="grid" width="50" height="50" patternUnits="userSpaceOnUse">
      <path d="M 50 0 L 0 0 0 50" fill="none" stroke="#4b5563" stroke-width="1" opacity="0.3"/>
    </pattern>
  </defs>
  <rect width="800" height="600" fill="url(#grid)"/>
  
  <!-- Central camera icon -->
  <circle cx="400" cy="300" r="80" fill="#6b7280" opacity="0.6" filter="url(#glow)"/>
  <rect x="360" y="270" width="80" height="60" fill="#9ca3af" rx="8"/>
  <circle cx="400" cy="300" r="25" fill="#374151"/>
  <circle cx="400" cy="300" r="15" fill="#1f2937"/>
  <circle cx="400" cy="300" r="8" fill="#6b7280"/>
  
  <!-- Camera mount -->
  <rect x="380" y="330" width="40" height="15" fill="#6b7280" rx="3"/>
  <rect x="390" y="345" width="20" height="8" fill="#4b5563" rx="2"/>
  
  <!-- "No Signal" text -->
  <text x="400" y="420" fill="#9ca3af" font-family="Arial" font-size="24" font-weight="bold" text-anchor="middle">
    No Video Feed
  </text>
  <text x="400" y="450" fill="#6b7280" font-family="Arial" font-size="16" text-anchor="middle">
    Select an incident to view camera footage
  </text>
  
  <!-- Corner indicators -->
  <rect x="20" y="20" width="40" height="3" fill="#6b7280" opacity="0.8"/>
  <rect x="20" y="20" width="3" height="40" fill="#6b7280" opacity="0.8"/>
  
  <rect x="740" y="20" width="40" height="3" fill="#6b7280" opacity="0.8"/>
  <rect x="777" y="20" width="3" height="40" fill="#6b7280" opacity="0.8"/>
  
  <rect x="20" y="577" width="40" height="3" fill="#6b7280" opacity="0.8"/>
  <rect x="20" y="540" width="3" height="40" fill="#6b7280" opacity="0.8"/>
  
  <rect x="740" y="577" width="40" height="3" fill="#6b7280" opacity="0.8"/>
  <rect x="777" y="540" width="3" height="40" fill="#6b7280" opacity="0.8"/>
  
  <!-- Status indicator -->
  <circle cx="750" cy="50" r="8" fill="#dc2626" opacity="0.8"/>
  <text x="750" y="75" fill="#9ca3af" font-family="Arial" font-size="12" text-anchor="middle">
    OFFLINE
  </text>
</svg>
